<svg xmlns="http://www.w3.org/2000/svg" width="185.859" height="59.856" viewBox="0 0 185.859 59.856">
  <g id="_5ff0c9ba62e74a4999baaa0f_Ad-Lib-white-logo" data-name="5ff0c9ba62e74a4999baaa0f_Ad-Lib-white-logo" transform="translate(-0.215 -0.117)">
    <path id="Path_31" data-name="Path 31" d="M24.647,40.316H10.238l-3.446,9.8H.215l14.1-39.841h6.265l14.1,39.841H28.093Zm-1.879-6.008L17.443,19.131,12.118,34.308Z" transform="translate(0 9.532)" fill="#fff"/>
    <path id="Path_32" data-name="Path 32" d="M45.426,8.813V51.5H39.788l-.313-2.529a11.388,11.388,0,0,1-7.831,2.846,13.317,13.317,0,0,1-6.891-1.9,12.327,12.327,0,0,1-4.385-5.375A18.905,18.905,0,0,1,18.8,37.27,18.905,18.905,0,0,1,20.367,30a12.327,12.327,0,0,1,4.385-5.375,11.828,11.828,0,0,1,6.891-1.9,10.108,10.108,0,0,1,7.518,2.846V8.813ZM37.595,44.226c1.253-1.581,1.879-3.794,1.879-6.956a12.11,12.11,0,0,0-1.879-6.956,6.869,6.869,0,0,0-10.65,0,11.078,11.078,0,0,0-1.879,6.64,10.444,10.444,0,0,0,1.879,6.64,6.666,6.666,0,0,0,5.325,2.53A4.886,4.886,0,0,0,37.595,44.226Z" transform="translate(17.437 8.158)" fill="#fff"/>
    <path id="Path_33" data-name="Path 33" d="M53.473,20.392H35.932v5.059H53.473Z" transform="translate(33.508 19.022)" fill="#fff"/>
    <path id="Path_34" data-name="Path 34" d="M48.7,8.974h6.578V45.336H72.192v6.008H48.7Z" transform="translate(45.486 8.309)" fill="#fff"/>
    <path id="Path_35" data-name="Path 35" d="M63.082,8.974h6.265V15.3H63.082Zm0,11.7h6.265V51.344H63.082Z" transform="translate(58.979 8.309)" fill="#fff"/>
    <path id="Path_36" data-name="Path 36" d="M89.9,24.772a12.328,12.328,0,0,1,4.385,5.375,18.9,18.9,0,0,1,1.566,7.272,17.7,17.7,0,0,1-1.566,7.273A12.327,12.327,0,0,1,89.9,50.068a11.5,11.5,0,0,1-6.578,1.9,12.2,12.2,0,0,1-8.144-2.846l-.313,2.529H69.223v-43h6.265V25.721a11.962,11.962,0,0,1,7.831-2.846A11.5,11.5,0,0,1,89.9,24.772ZM87.7,44.06a11.078,11.078,0,0,0,1.879-6.64A10.444,10.444,0,0,0,87.7,30.78a6.068,6.068,0,0,0-5.012-2.529,7.306,7.306,0,0,0-5.638,2.529c-1.253,1.581-1.879,3.794-1.879,6.956a11.44,11.44,0,0,0,1.879,6.956,6.856,6.856,0,0,0,5.638,2.529A8.024,8.024,0,0,0,87.7,44.06Z" transform="translate(64.74 8.002)" fill="#fff"/>
    <path id="Path_37" data-name="Path 37" d="M86.933,29.692H84.74v2.213h2.193Z" transform="translate(79.298 27.747)" fill="#fff"/>
    <path id="Path_38" data-name="Path 38" d="M87.164,23.166h1.879v2.213H87.164Zm0,4.427h1.879V38.027H87.164Z" transform="translate(81.572 21.624)" fill="#fff"/>
    <path id="Path_39" data-name="Path 39" d="M91.3,35.406c-.626-.316-1.253-1.265-1.879-1.9a7.081,7.081,0,0,1-.313-2.846,9.309,9.309,0,0,1,.626-2.846,2.838,2.838,0,0,1,1.879-1.9,6.206,6.206,0,0,1,2.819-.632,9.07,9.07,0,0,1,2.819.632c.626.316,1.253,1.265,1.879,1.9a7.612,7.612,0,0,1,.626,2.846,9.307,9.307,0,0,1-.626,2.846,2.837,2.837,0,0,1-1.879,1.9,6.205,6.205,0,0,1-2.819.632A5.111,5.111,0,0,1,91.3,35.406Zm5.012-1.9a3.888,3.888,0,0,0,.94-2.846,3.888,3.888,0,0,0-.94-2.846,2.832,2.832,0,0,0-2.193-.949,2.429,2.429,0,0,0-2.192.949,3.887,3.887,0,0,0-.94,2.846,3.887,3.887,0,0,0,.94,2.846,2.831,2.831,0,0,0,2.192.949A2.43,2.43,0,0,0,96.308,33.509Z" transform="translate(83.392 23.614)" fill="#fff"/>
    <path id="Path_40" data-name="Path 40" d="M108.447,8.27a1.985,1.985,0,0,0-.984-1.718L96.825.38A1.943,1.943,0,0,0,94.89.369L83.961,6.556a1.984,1.984,0,0,0-1,1.728V21.2a1.984,1.984,0,0,0,1,1.728l11.9,6.736-.242,9.021a.783.783,0,0,0,1.435.464l11.06-16.6a2,2,0,0,0,.334-1.106Z" transform="translate(77.627 0)" fill="#f22076"/>
  </g>
</svg>
