<svg xmlns="http://www.w3.org/2000/svg" width="634.719" height="397.701" viewBox="0 0 634.719 397.701">
  <g id="undraw_content_team_3epn" transform="translate(2.679 0)">
    <path id="Path_7" data-name="Path 7" d="M783.781,712.574H248.942a17.933,17.933,0,0,1-17.933-17.933h0q290.819-33.8,570.706,0h0a17.933,17.933,0,0,1-17.933,17.933Z" transform="translate(-181.108 -314.873)" fill="#aba2c2"/>
    <path id="Path_8" data-name="Path 8" d="M801.714,554.715,231.008,553.66l66.143-111.293.316-.527V196.563a22.668,22.668,0,0,1,22.672-22.67H709.42a22.669,22.669,0,0,1,22.67,22.672V443.527Z" transform="translate(-181.108 -173.893)" fill="#e3e3ec"/>
    <path id="Path_9" data-name="Path 9" d="M351.179,195.864a7.393,7.393,0,0,0-7.384,7.384V426.889a7.393,7.393,0,0,0,7.384,7.384H744.66a7.393,7.393,0,0,0,7.384-7.384V203.248a7.393,7.393,0,0,0-7.384-7.384Z" transform="translate(-212.666 -180.04)" fill="#fff" opacity="0.841"/>
    <path id="Path_10" data-name="Path 10" d="M348.491,567.913a3.173,3.173,0,0,0-2.875,1.842l-20.381,44.306a3.165,3.165,0,0,0,2.875,4.488H756.7a3.165,3.165,0,0,0,2.83-4.58l-22.153-44.306a3.148,3.148,0,0,0-2.83-1.749Z" transform="translate(-207.392 -284.143)" fill="#aba2c2"/>
    <circle id="Ellipse_1" data-name="Ellipse 1" cx="4.747" cy="4.747" r="4.747" transform="translate(328.924 2.637)" fill="#fff"/>
    <path id="Path_11" data-name="Path 11" d="M563.318,649.94a3.169,3.169,0,0,0-3.055,2.342l-5.112,18.988a3.165,3.165,0,0,0,3.056,3.988H655.43a3.164,3.164,0,0,0,2.99-4.2l-6.573-18.988a3.167,3.167,0,0,0-2.991-2.129Z" transform="translate(-271.775 -307.094)" fill="#aba2c2"/>
    <path id="Path_12" data-name="Path 12" d="M597.108,366.922v4.22H162.169l.327-.528v-3.692Z" transform="translate(-46.126 -102.667)" fill="#aba2c2"/>
    <path id="Path_13" data-name="Path 13" d="M851.444,554.237a.772.772,0,0,0-.744.57l-1.245,4.624a.771.771,0,0,0,.744.971h23.676a.771.771,0,0,0,.728-1.023l-1.6-4.624a.771.771,0,0,0-.728-.518Z" transform="translate(-354.146 -280.316)" fill="#ccc"/>
    <path id="Path_14" data-name="Path 14" d="M803.444,554.237a.772.772,0,0,0-.744.57l-1.245,4.624a.771.771,0,0,0,.744.971h23.676a.77.77,0,0,0,.728-1.023l-1.6-4.624a.771.771,0,0,0-.728-.518Z" transform="translate(-340.716 -280.316)" fill="#aba2c2"/>
    <path id="Path_15" data-name="Path 15" d="M645.456,498.67h1.856L643.6,250.644h-1.855l.074,4.948H600.23l.074-4.948h-1.856L594.738,498.67h1.856l.241-16.081h48.382Zm-2.675-178.752H599.268l.453-30.307h42.607Zm.028,1.856.453,30.307H598.787l.453-30.307Zm.481,32.163.454,30.307H598.305l.453-30.307Zm.481,32.163.453,30.307h-46.4l.453-30.307Zm.481,32.163.453,30.307H597.343l.454-30.307Zm-2.406-160.815.453,30.307H599.749l.453-30.307ZM596.862,480.733l.453-30.307h47.419l.453,30.307Z" transform="translate(-282.882 -195.368)" fill="#5338c5"/>
    <circle id="Ellipse_2" data-name="Ellipse 2" cx="30.257" cy="30.257" r="30.257" transform="translate(298.694 80.19)" fill="#5338c5"/>
    <rect id="Rectangle_5" data-name="Rectangle 5" width="9.192" height="16.469" transform="translate(337.704 132.997) rotate(-10.261)" fill="#5338c5"/>
    <rect id="Rectangle_6" data-name="Rectangle 6" width="9.192" height="16.469" transform="translate(319.614 136.272) rotate(-10.261)" fill="#5338c5"/>
    <ellipse id="Ellipse_3" data-name="Ellipse 3" cx="7.66" cy="2.873" rx="7.66" ry="2.873" transform="matrix(0.763, -0.646, 0.646, 0.763, 317.791, 156.453)" fill="#5338c5"/>
    <ellipse id="Ellipse_4" data-name="Ellipse 4" cx="7.66" cy="2.873" rx="7.66" ry="2.873" transform="matrix(0.763, -0.646, 0.646, 0.763, 335.504, 153.246)" fill="#5338c5"/>
    <circle id="Ellipse_5" data-name="Ellipse 5" cx="10.341" cy="10.341" r="10.341" transform="translate(316.491 92.705)" fill="#fff"/>
    <circle id="Ellipse_6" data-name="Ellipse 6" cx="3.447" cy="3.447" r="3.447" transform="translate(319.135 95.892)" fill="#3f3d56"/>
    <path id="Path_16" data-name="Path 16" d="M634.214,273.3c.455-11.2-9.2-20.689-21.563-21.192s-22.756,8.171-23.211,19.373,8.14,13.747,20.5,14.249S633.759,284.506,634.214,273.3Z" transform="translate(-281.395 -195.773)" fill="#ec3f76"/>
    <ellipse id="Ellipse_7" data-name="Ellipse 7" cx="4.749" cy="15.128" rx="4.749" ry="15.128" transform="matrix(0.223, -0.975, 0.975, 0.223, 285.204, 106.184)" fill="#5338c5"/>
    <ellipse id="Ellipse_8" data-name="Ellipse 8" cx="4.749" cy="15.128" rx="4.749" ry="15.128" transform="matrix(0.223, -0.975, 0.975, 0.223, 344.597, 116.061)" fill="#5338c5"/>
    <path id="Path_17" data-name="Path 17" d="M624.7,342.41a6.894,6.894,0,0,1-13.565,2.469l0-.013c-.678-3.747,2.219-5.072,5.965-5.751S624.025,338.664,624.7,342.41Z" transform="translate(-287.443 -220.039)" fill="#fff"/>
    <ellipse id="Ellipse_9" data-name="Ellipse 9" cx="15.508" cy="4.869" rx="15.508" ry="4.869" transform="matrix(0.357, -0.934, 0.934, 0.357, 211.838, 224.222)" fill="#5338c5"/>
    <circle id="Ellipse_10" data-name="Ellipse 10" cx="31.017" cy="31.017" r="31.017" transform="translate(157.671 260.541) rotate(-80.783)" fill="#5338c5"/>
    <rect id="Rectangle_7" data-name="Rectangle 7" width="9.423" height="16.883" transform="translate(179.121 259.237)" fill="#5338c5"/>
    <rect id="Rectangle_8" data-name="Rectangle 8" width="9.423" height="16.883" transform="translate(197.966 259.237)" fill="#5338c5"/>
    <ellipse id="Ellipse_11" data-name="Ellipse 11" cx="7.852" cy="2.945" rx="7.852" ry="2.945" transform="translate(179.121 273.371)" fill="#5338c5"/>
    <ellipse id="Ellipse_12" data-name="Ellipse 12" cx="7.852" cy="2.945" rx="7.852" ry="2.945" transform="translate(197.966 272.979)" fill="#5338c5"/>
    <path id="Path_18" data-name="Path 18" d="M388.1,449.924c-2.5-11.216,5.5-22.55,17.881-25.314s24.446,4.087,26.951,15.3-5.7,15.353-18.08,18.117S390.608,461.14,388.1,449.924Z" transform="translate(-224.936 -243.874)" fill="#ec3f76"/>
    <ellipse id="Ellipse_13" data-name="Ellipse 13" cx="4.869" cy="15.508" rx="4.869" ry="15.508" transform="translate(142.222 218.256) rotate(-64.626)" fill="#5338c5"/>
    <circle id="Ellipse_14" data-name="Ellipse 14" cx="31.017" cy="31.017" r="31.017" transform="translate(27.938 235.284)" fill="#5338c5"/>
    <rect id="Rectangle_9" data-name="Rectangle 9" width="9.423" height="16.883" transform="translate(44.821 290.643)" fill="#5338c5"/>
    <rect id="Rectangle_10" data-name="Rectangle 10" width="9.423" height="16.883" transform="translate(63.666 290.643)" fill="#5338c5"/>
    <ellipse id="Ellipse_15" data-name="Ellipse 15" cx="7.852" cy="2.945" rx="7.852" ry="2.945" transform="translate(44.821 304.777)" fill="#5338c5"/>
    <ellipse id="Ellipse_16" data-name="Ellipse 16" cx="7.852" cy="2.945" rx="7.852" ry="2.945" transform="translate(63.666 304.385)" fill="#5338c5"/>
    <circle id="Ellipse_17" data-name="Ellipse 17" cx="10.601" cy="10.601" r="10.601" transform="translate(49.14 247.848)" fill="#fff"/>
    <circle id="Ellipse_18" data-name="Ellipse 18" cx="3.534" cy="3.534" r="3.534" transform="translate(56.207 254.915)" fill="#5338c5"/>
    <path id="Path_19" data-name="Path 19" d="M201.626,493.532c-2.5-11.216,5.5-22.549,17.881-25.314s24.446,4.087,26.951,15.3-5.7,15.353-18.08,18.117S204.13,504.748,201.626,493.532Z" transform="translate(-172.758 -256.076)" fill="#e6e6e6"/>
    <ellipse id="Ellipse_19" data-name="Ellipse 19" cx="15.508" cy="4.869" rx="15.508" ry="4.869" transform="matrix(0.357, -0.934, 0.934, 0.357, 66.938, 166.504)" fill="#5338c5"/>
    <circle id="Ellipse_20" data-name="Ellipse 20" cx="31.017" cy="31.017" r="31.017" transform="translate(12.77 202.824) rotate(-80.783)" fill="#5338c5"/>
    <rect id="Rectangle_11" data-name="Rectangle 11" width="9.423" height="16.883" transform="translate(34.22 201.519)" fill="#5338c5"/>
    <rect id="Rectangle_12" data-name="Rectangle 12" width="9.423" height="16.883" transform="translate(53.066 201.519)" fill="#5338c5"/>
    <ellipse id="Ellipse_21" data-name="Ellipse 21" cx="7.852" cy="2.945" rx="7.852" ry="2.945" transform="translate(34.22 215.653)" fill="#5338c5"/>
    <ellipse id="Ellipse_22" data-name="Ellipse 22" cx="7.852" cy="2.945" rx="7.852" ry="2.945" transform="translate(53.066 215.26)" fill="#5338c5"/>
    <circle id="Ellipse_23" data-name="Ellipse 23" cx="10.601" cy="10.601" r="10.601" transform="translate(38.539 158.724)" fill="#fff"/>
    <circle id="Ellipse_24" data-name="Ellipse 24" cx="3.534" cy="3.534" r="3.534" transform="translate(45.606 165.791)" fill="#5338c5"/>
    <path id="Path_20" data-name="Path 20" d="M186.906,369.781c-2.5-11.216,5.5-22.549,17.881-25.314s24.446,4.087,26.951,15.3-5.7,15.353-18.08,18.117S189.411,381,186.906,369.781Z" transform="translate(-168.639 -221.449)" fill="#ec3f76"/>
    <ellipse id="Ellipse_25" data-name="Ellipse 25" cx="4.869" cy="15.508" rx="4.869" ry="15.508" transform="translate(-2.679 160.538) rotate(-64.626)" fill="#5338c5"/>
    <path id="Path_21" data-name="Path 21" d="M207.707,433.98c0,3.036,7.816,9.03,16.49,9.03S241,434.464,241,431.428s-8.132.589-16.806.589S207.707,430.944,207.707,433.98Z" transform="translate(-174.588 -245.614)" fill="#fff"/>
    <path id="Path_22" data-name="Path 22" d="M270.364,255.461a2.163,2.163,0,0,0-2.161,2.161v89.3a2.163,2.163,0,0,0,2.161,2.161h206.7a2.163,2.163,0,0,0,2.161-2.161v-89.3a2.163,2.163,0,0,0-2.161-2.161Z" transform="translate(-191.515 -196.716)" fill="#ec3f76"/>
    <circle id="Ellipse_26" data-name="Ellipse 26" cx="20.973" cy="20.973" r="20.973" transform="translate(113.687 84.585)" fill="#fff"/>
    <path id="Path_40" data-name="Path 40" d="M413.471,316.587a2.452,2.452,0,1,0,0,4.9h66.219a2.452,2.452,0,1,0,.081-4.9h-66.3Z" transform="translate(-231.476 -213.819)" fill="#fff"/>
    <path id="Path_40-2" data-name="Path 40" d="M413.471,296.859a2.452,2.452,0,1,0,0,4.9h33.068a2.452,2.452,0,1,0,.081-4.9H413.471Z" transform="translate(-231.476 -208.3)" fill="#fff"/>
    <path id="Path_40-3" data-name="Path 40" d="M413.471,337.253a2.452,2.452,0,1,0,0,4.9h66.219a2.452,2.452,0,1,0,.081-4.9h-66.3Z" transform="translate(-231.476 -219.602)" fill="#fff"/>
    <ellipse id="Ellipse_27" data-name="Ellipse 27" cx="4.869" cy="15.508" rx="4.869" ry="15.508" transform="matrix(0.934, -0.357, 0.357, 0.934, 487.971, 255.601)" fill="#5338c5"/>
    <circle id="Ellipse_28" data-name="Ellipse 28" cx="31.017" cy="31.017" r="31.017" transform="translate(484.661 272.609) rotate(-9.217)" fill="#5338c5"/>
    <path id="Path_23" data-name="Path 23" d="M739.374,447.932h-9.422L731.8,468.15l7.6-2.063Z" transform="translate(-204.995 -125.335)" fill="#5338c5"/>
    <path id="Path_24" data-name="Path 24" d="M710.851,448h-9.423l1.844,20.218,7.252-2.116Z" transform="translate(-197.014 -125.355)" fill="#5338c5"/>
    <ellipse id="Ellipse_29" data-name="Ellipse 29" cx="7.852" cy="2.945" rx="7.852" ry="2.945" transform="translate(497.731 338.517) rotate(-4.182)" fill="#5338c5"/>
    <circle id="Ellipse_30" data-name="Ellipse 30" cx="10.601" cy="10.601" r="10.601" transform="translate(508.859 279.802)" fill="#fff"/>
    <circle id="Ellipse_31" data-name="Ellipse 31" cx="3.534" cy="3.534" r="3.534" transform="translate(515.926 286.869)" fill="#5338c5"/>
    <ellipse id="Ellipse_32" data-name="Ellipse 32" cx="15.508" cy="4.869" rx="15.508" ry="4.869" transform="translate(539.886 286.245) rotate(-53.55)" fill="#5338c5"/>
    <path id="Path_25" data-name="Path 25" d="M863.077,607.34c0-2.5,6.442-7.443,13.591-7.443s13.851,7.044,13.851,9.546-6.7-.485-13.851-.485S863.077,609.842,863.077,607.34Z" transform="translate(-357.965 -293.092)" fill="#fff"/>
    <path id="Path_26" data-name="Path 26" d="M937.2,485.9,767.421,462.363a5.048,5.048,0,0,1-4.3-5.686L782.206,319a5.047,5.047,0,0,1,5.686-4.3l169.782,23.537a5.047,5.047,0,0,1,4.3,5.686L942.889,481.6a5.047,5.047,0,0,1-5.686,4.3Z" transform="translate(-329.983 -213.277)" fill="#ec3f76"/>
    <path id="Path_27" data-name="Path 27" d="M886.6,462.254l-86.678-12.016a1.786,1.786,0,0,1-.32-.071l50.839-65.326a2.9,2.9,0,0,1,5,.693L876.345,437l1,2.463Z" transform="translate(-340.205 -232.599)" fill="#fff"/>
    <path id="Path_28" data-name="Path 28" d="M748.224,309.068l-29.594-4.1,17.453-19.088,1.257-1.375.628-.688,1,2.463Z" transform="translate(-201.827 -79.414)" opacity="0.2" style="isolation: isolate"/>
    <path id="Path_29" data-name="Path 29" d="M958.287,480,883.318,469.6l17.453-19.088,1.256-1.375,22.743-24.876a3.867,3.867,0,0,1,5.733.448,3.467,3.467,0,0,1,.225.378Z" transform="translate(-363.629 -243.65)" fill="#fff"/>
    <circle id="Ellipse_33" data-name="Ellipse 33" cx="12.963" cy="12.963" r="12.963" transform="translate(534.487 148.492)" fill="#fff"/>
    <rect id="Rectangle_13" data-name="Rectangle 13" width="15.844" height="15.844" transform="translate(460.805 112.002) rotate(7.893)" fill="#5338c5"/>
    <path id="Path_30" data-name="Path 30" d="M908.273,537.9c2.5-11.216-5.5-22.55-17.881-25.314s-24.446,4.087-26.951,15.3,5.7,15.353,18.08,18.117S905.769,549.117,908.273,537.9Z" transform="translate(-357.941 -268.49)" fill="#f2f2f2"/>
    <ellipse id="Ellipse_34" data-name="Ellipse 34" cx="7.852" cy="2.945" rx="7.852" ry="2.945" transform="translate(518.395 338.467) rotate(-4.182)" fill="#5338c5"/>
  </g>
</svg>
